<?xml version="1.0" standalone="no"?>
<!DOCTYPE svg PUBLIC "-//W3C//DTD SVG 20010904//EN"
 "http://www.w3.org/TR/2001/REC-SVG-20010904/DTD/svg10.dtd">
<svg version="1.0" xmlns="http://www.w3.org/2000/svg"
 width="700.000000pt" height="700.000000pt" viewBox="0 0 700.000000 700.000000"
 preserveAspectRatio="xMidYMid meet">
<metadata>
Created by potrace 1.14, written by Peter Selinger 2001-2017
</metadata>
<g transform="translate(0.000000,700.000000) scale(0.100000,-0.100000)"
fill="#000000" stroke="none">
<path d="M1663 4683 c-3 -9 1 -80 11 -157 20 -174 20 -245 1 -321 -18 -66 -52
-117 -99 -146 -24 -16 -43 -19 -83 -15 -57 5 -62 2 -83 -54 -7 -19 -20 -51
-28 -70 -8 -19 -18 -45 -23 -57 -5 -13 -13 -33 -18 -45 -37 -93 -62 -159 -71
-193 -7 -22 -16 -54 -21 -70 -5 -17 -13 -92 -18 -167 -12 -156 -17 -183 -43
-220 -17 -25 -25 -28 -76 -28 -73 0 -113 24 -141 85 -7 17 -17 38 -22 47 -5
10 -9 60 -9 112 0 72 -4 96 -15 106 -14 11 -22 7 -55 -30 -22 -25 -40 -48 -40
-53 0 -5 -13 -27 -29 -50 -25 -38 -42 -72 -73 -147 -6 -14 -15 -34 -19 -45 -5
-11 -20 -65 -34 -120 -37 -147 -33 -237 17 -380 12 -35 49 -115 61 -130 4 -5
24 -35 44 -65 20 -30 39 -57 42 -60 3 -3 19 -23 36 -45 16 -22 32 -42 35 -45
11 -9 60 -84 60 -92 0 -11 -36 -10 -58 1 -9 4 -39 19 -67 32 -27 13 -53 25
-57 27 -5 2 -11 -3 -14 -12 -6 -16 14 -38 121 -135 211 -191 524 -317 780
-314 127 2 374 41 450 72 11 5 45 16 75 26 177 56 460 221 460 268 0 6 -20 7
-50 3 -28 -4 -55 -4 -60 -1 -13 8 10 52 47 92 15 17 55 59 87 94 93 101 168
226 192 324 12 48 10 285 -3 345 -18 85 -30 130 -48 190 -9 30 -19 67 -22 83
-3 15 -9 27 -14 27 -5 0 -9 6 -9 13 0 6 -14 40 -32 75 -38 73 -62 79 -66 17
-4 -73 -12 -100 -36 -128 -20 -24 -33 -29 -69 -29 -51 0 -80 15 -99 51 -15 28
-13 226 2 267 13 34 13 176 -1 228 -18 70 -43 151 -49 156 -3 3 -12 19 -20 35
-8 17 -17 32 -20 35 -3 3 -14 18 -24 34 -71 111 -289 311 -526 483 -36 26 -67
49 -70 52 -14 16 -80 61 -90 61 -6 0 -13 -7 -17 -17z m239 -1973 c17 -16 44
-34 60 -41 15 -6 25 -15 22 -20 -3 -5 2 -12 11 -16 10 -3 27 -15 39 -27 12
-12 30 -25 40 -31 9 -5 18 -17 19 -25 4 -24 20 -46 43 -58 12 -6 24 -24 27
-39 3 -16 13 -56 23 -91 17 -59 17 -64 1 -109 -22 -59 -95 -175 -143 -228
-118 -130 -127 -138 -178 -151 -28 -8 -88 -14 -132 -14 l-82 0 -33 38 c-19 21
-44 51 -56 67 -12 17 -29 39 -38 50 -78 98 -136 188 -151 230 -16 49 -16 54 1
108 10 31 22 57 26 57 5 0 9 6 9 14 0 7 16 30 35 50 19 21 35 44 35 52 0 8 5
14 10 14 6 0 10 6 10 14 0 20 93 111 129 126 17 7 31 19 31 26 0 8 9 14 20 14
11 0 20 4 20 9 0 14 46 20 112 15 46 -4 64 -11 90 -34z"/>
<path d="M3679 4673 c-34 -9 -40 -44 -35 -183 3 -74 9 -191 15 -260 27 -346
43 -555 52 -655 21 -240 26 -359 17 -404 -22 -112 -53 -306 -64 -401 -3 -25
-9 -54 -14 -65 -5 -11 -11 -42 -14 -70 -3 -27 -10 -75 -16 -105 -16 -94 -41
-263 -46 -310 -3 -25 -9 -54 -14 -65 -10 -22 -18 -82 -25 -195 -9 -125 -54
-115 496 -118 434 -3 472 -1 507 15 33 16 72 18 395 18 307 0 359 -2 367 -15
8 -13 74 -15 493 -15 531 0 507 -3 521 61 3 16 1 56 -5 89 -6 33 -15 85 -20
115 -4 30 -13 80 -18 110 -5 30 -17 102 -25 160 -9 58 -21 130 -26 160 -6 30
-13 78 -16 105 -3 28 -9 59 -14 70 -5 11 -11 43 -14 70 -7 77 -40 281 -64 400
-7 39 -3 125 17 360 6 61 17 207 26 325 9 118 21 267 26 330 20 270 27 397 22
420 -14 59 75 55 -1272 56 -680 1 -1243 0 -1252 -3z"/>
<path d="M974 4033 c-18 -55 -41 -97 -79 -138 -23 -26 -57 -72 -76 -103 -31
-52 -34 -62 -37 -159 -4 -90 -2 -103 12 -103 16 0 121 104 140 138 5 10 12 19
15 22 15 12 51 100 60 148 12 58 14 154 5 190 -7 26 -32 29 -40 5z"/>
</g>
</svg>
